<svg
  version="1.1"
  baseProfile="full"
  width="100%" height="100%"
  xmlns="http://www.w3.org/2000/svg"
  viewBox="0 0 1400 800"
>

  <rect x="1300" y="400" rx="40" ry="40" width="300" height="300" stroke="#5D67E8" fill="#5D67E8">
    <animateTransform attributeType="XML" attributeName="transform" begin="0s" dur="35s"
      type="rotate" from="0 1450 550" to="360 1450 550" repeatCount="indefinite" />
  </rect>

  <path d="M 100 350 A 150 150 0 1 1 400 350 Q400 370 380 370 L 250 370 L 120 370 Q100 370 100 350"
    stroke="rgb(253, 214, 99)" fill="rgb(253, 214, 99)">
    <animateMotion path="M 800 -200 L 800 -300 L 800 -200" dur="20s" begin="0s"
      repeatCount="indefinite" />
    <animateTransform attributeType="XML" attributeName="transform" begin="0s" dur="30s"
      type="rotate" values="0 210 530 ; -30 210 530 ; 0 210 530" keyTimes="0 ; 0.5 ; 1"
      repeatCount="indefinite" />
  </path>

  <circle cx="200" cy="160" r="60" stroke="#5D67E8" fill="#5D67E8">
    <animateMotion path="M 0 0 L 40 20 Z" dur="5s" repeatCount="indefinite" />
  </circle>

  <path
    d="M 165 580 L 270 580 Q275 578 270 570 L 223 483 Q220 480 217 483 L 165 570 Q160 578 165 580"
    stroke="rgb(238, 103, 92)" fill="rgb(238, 103, 92)">
    <animateTransform attributeType="XML" attributeName="transform" begin="0s" dur="35s"
      type="rotate" from="0 210 530" to="360 210 530" repeatCount="indefinite" />
  </path>

  <circle cx="1200" cy="600" r="30" stroke="rgb(241, 243, 244)" fill="rgb(241, 243, 244)">
    <animateMotion path="M 0 0 L -20 40 Z" dur="9s" repeatCount="indefinite" />
  </circle>

  <path d="M 100 350 A 40 40 0 1 1 180 350 L 180 430 A 40 40 0 1 1 100 430 Z"
    stroke="rgb(241, 243, 244)" fill="rgb(241, 243, 244)">
    <animateMotion path="M 140 390 L 180 360 L 140 390" dur="20s" begin="0s"
      repeatCount="indefinite" />
    <animateTransform attributeType="XML" attributeName="transform" begin="0s" dur="30s"
      type="rotate" values="0 140 390; -60 140 390; 0 140 390" keyTimes="0 ; 0.5 ; 1"
      repeatCount="indefinite" />
  </path>

  <path id="rectHorizontalPath" d="M 450 650 L 500 650 L 450 650 L 400 650 L 450 650" fill="none" />

  <rect
    x="400" y="600"
    rx="40" ry="40"
    width="100" height="100"
    stroke="rgb(129, 201, 149)"
    fill="rgb(129, 201, 149)"
  >
    <animateTransform
      attributeType="XML"
      attributeName="transform"
      begin="0s"
      dur="35s"
      type="rotate"
      from="-30 450 650"
      to="330 450 650"
      repeatCount="indefinite"
    />
    <animateMotion path="M 0 0 L 400 20 Z" dur="35s" repeatCount="indefinite" />
  </rect>

  <ellipse cx="600" cy="200" rx="80" ry="80" stroke="#A78BFA" fill="#A78BFA">
    <animateTransform attributeType="XML" attributeName="transform" begin="0s" dur="25s"
      type="rotate" from="0 600 100" to="360 600 200" repeatCount="indefinite" />
    <animateMotion path="M 600 200 L 600 180 L 600 200 L 600 220 L 600 200" dur="15s" begin="0s"
      repeatCount="indefinite" />
  </ellipse>

  <path
    d="M 800 300 L 820 360 L 880 360 L 830 400 L 850 460 L 800 420 L 750 460 L 770 400 L 720 360 L 780 360 Z"
    stroke="#FB923C" fill="#FB923C">
    <animateMotion path="M 800 300 Q 900 350 800 400 Q 700 350 800 300" dur="20s" begin="0s"
      repeatCount="indefinite" />
    <animateTransform attributeType="XML" attributeName="transform" begin="0s" dur="30s"
      type="rotate" from="0 800 380" to="360 800 380" repeatCount="indefinite" />
  </path>

  <polygon points="1000 150, 1050 170, 1050 220, 1000 240, 950 220, 950 170" stroke="#6EE7B7"
    fill="#6EE7B7">
    <animateMotion path="M 1000 195 L 1050 195 L 1000 195 L 950 195 L 1000 195" dur="12s" begin="0s"
      repeatCount="indefinite" />
  </polygon>
</svg>